<svg width="375" height="340" viewBox="0 0 375 340" fill="none" xmlns="http://www.w3.org/2000/svg">
<path fill-rule="evenodd" clip-rule="evenodd" d="M182.551 7.67834C217.401 1.25279 251.479 -1.81444 286.637 1.36716C337.945 6.01018 397.616 -0.802791 434.127 30.4444C471.394 62.3375 474.499 114.766 473.109 160.953C471.685 208.257 471.53 268.033 426.174 294.775C377.633 323.396 313.57 279.371 256.439 288.704C216.533 295.223 191.815 336.855 151.449 339.654C107.212 342.722 66.7047 323.482 28.6342 304.502C-18.8408 280.833 -91.7583 264.334 -96.0527 216.262C-100.567 165.729 -29.8322 134.793 10.1017 97.0464C35.1032 73.4142 62.0309 53.3349 93.6512 36.9484C121.533 22.4993 151.031 13.4898 182.551 7.67834Z" fill="url(#paint0_linear_1003_9593)"/>
<defs>
<linearGradient id="paint0_linear_1003_9593" x1="204.616" y1="-3.98675" x2="174.141" y2="332.173" gradientUnits="userSpaceOnUse">
<stop stop-color="#F6AD55"/>
<stop offset="1" stop-color="#FBD38D"/>
</linearGradient>
</defs>
</svg>
